<svg xmlns="http://www.w3.org/2000/svg" xmlns:xlink="http://www.w3.org/1999/xlink" viewBox="0 0 715.13 220.97"><defs><style>.cls-1{filter:url(#luminosity-noclip);}.cls-2{fill:#070707;opacity:0.35;}.cls-3{mask:url(#mask);}.cls-4{fill:#bc3624;}.cls-5,.cls-7{fill:#282328;}.cls-6{fill:#fe593c;}.cls-7,.cls-8{font-size:70px;font-family:Asap-Bold, Asap;font-weight:700;}.cls-8{fill:#fff;}</style><filter id="luminosity-noclip" x="0" y="-23" width="715.13" height="551" filterUnits="userSpaceOnUse" color-interpolation-filters="sRGB"><feFlood flood-color="#fff" result="bg"/><feBlend in="SourceGraphic" in2="bg"/></filter><mask id="mask" x="0" y="-23" width="715.13" height="551" maskUnits="userSpaceOnUse"><rect class="cls-1" x="164.13" y="-23" width="387" height="551" rx="10" ry="10"/></mask></defs><title>Asset 1</title><g id="Layer_2" data-name="Layer 2"><g id="Win_Dialog" data-name="Win Dialog"><path class="cls-2" d="M549.06,93.18c-.15-.57-.95-2.78-1.41-4.15a148.34,148.34,0,0,0-9.07-12.82c-.43-.27-.86-.56-1.29-.82-3.26-2-6.59-3.92-10-5.67-.89-.45-1.84-.85-2.79-1.27,1.31.79,1.43,1.21-2.38-1.11a103.18,103.18,0,0,0-19.19-4.52c-26.82-3.09-54-1.66-80.74,1.85L412.37,66,420.21,65C398,68,376,72.66,354,76.81c-21.9,4.12-44,6.88-66,9.8-18.59,2.55-37.16,5.44-55.43,9.78-9.35,2.22-18.62,4.82-27.72,7.91-4.35,1.48-8.64,3.11-12.92,4.78-.53.23-1.07.46-1.59.7-1.84.84-3.66,1.69-5.48,2.57-6.73,3.26-13.29,6.82-19.74,10.56.07,10.84-.3,21.68-.95,32.51,129.38,29.15,258.75-51.78,388.13-22-.62-10.82-.42-21.68-1.45-32.47C550.31,98.36,549.76,95.76,549.06,93.18Z"/><g class="cls-3"><path class="cls-4" d="M195.61,202.94c-65-58.44-129.91,59-194.87,1.9,24.33,1.9,48.66-20.69,73-49.35C49.15,145.27,24.58,128.86,0,87.25c65,58.45,129.91-59,194.87-1.89Q195.23,144.14,195.61,202.94Z"/><path class="cls-4" d="M519.52,182.58c65,59.27,129.92-57.36,194.87.57-24.33-41.18-48.66-57.88-73-68.5C666,86.2,690.55,64,715.13,66.9c-65-59.27-129.91,57.36-194.86-.58Z"/><path class="cls-5" d="M142.19,101l-13.35,37.58s3.42,20.5,33.38,34.64c17.8,6.88,23.91,13.38,33.39,29.71-.21-32.59-.41-80.07-.62-112.65C168.76,95.2,142.19,101,142.19,101Z"/><path class="cls-5" d="M586.29,138s-32.2-34.79-39.08-37a256.89,256.89,0,0,0-27.12-7l-.57,88.63S538.25,138.32,586.29,138Z"/></g><path class="cls-6" d="M586.29,138c-152.48-60.08-305,60.67-457.45.59Q128.47,80,128.1,21.38c153,59.26,306-64.07,458.93-4.81Q586.66,77.29,586.29,138Z"/><text class="cls-7" transform="translate(172.42 122.78) rotate(8.48)">I</text><text class="cls-7" transform="translate(193.12 125.92) rotate(3.29)">t</text><text class="cls-7" transform="translate(219.99 127.07) rotate(-1.35)">’</text><text class="cls-7" transform="matrix(1, -0.07, 0.07, 1, 231.1, 127.03)">s</text><text class="cls-7" transform="translate(260.56 124.89) rotate(-6.36)"> </text><text class="cls-7" transform="translate(277.69 123.13) rotate(-8.5)">a</text><text class="cls-7" transform="translate(314.96 117.42) rotate(-9.8)"> </text><text class="cls-7" transform="matrix(0.98, -0.18, 0.18, 0.98, 330.73, 114.75)">M</text><text class="cls-7" transform="translate(386.7 104.36) rotate(-9.46)">a</text><text class="cls-7" transform="matrix(0.99, -0.14, 0.14, 0.99, 421.44, 98.6)">t</text><text class="cls-7" transform="translate(442.1 95.56) rotate(-5.42)">c</text><text class="cls-7" transform="translate(473.26 92.29) rotate(-0.77)">h</text><text class="cls-7" transform="matrix(1, 0.08, -0.08, 1, 509.46, 92.04)">!</text><text class="cls-8" transform="translate(174.42 119.78) rotate(8.48)">I</text><text class="cls-8" transform="translate(195.12 122.92) rotate(3.29)">t</text><text class="cls-8" transform="translate(221.99 124.07) rotate(-1.35)">’</text><text class="cls-8" transform="matrix(1, -0.07, 0.07, 1, 233.1, 124.03)">s</text><text class="cls-8" transform="translate(262.56 121.89) rotate(-6.36)"> </text><text class="cls-8" transform="translate(279.69 120.13) rotate(-8.5)">a</text><text class="cls-8" transform="translate(316.96 114.42) rotate(-9.8)"> </text><text class="cls-8" transform="matrix(0.98, -0.18, 0.18, 0.98, 332.73, 111.75)">M</text><text class="cls-8" transform="translate(388.7 101.36) rotate(-9.46)">a</text><text class="cls-8" transform="matrix(0.99, -0.14, 0.14, 0.99, 423.44, 95.6)">t</text><text class="cls-8" transform="translate(444.1 92.56) rotate(-5.42)">c</text><text class="cls-8" transform="translate(475.26 89.29) rotate(-0.77)">h</text><text class="cls-8" transform="matrix(1, 0.08, -0.08, 1, 511.46, 89.04)">!</text></g></g></svg>