<?xml version="1.0" encoding="utf-8"?>
<!-- Generator: Adobe Illustrator 22.0.1, SVG Export Plug-In . SVG Version: 6.00 Build 0)  -->
<svg version="1.1" id="Layer_1" xmlns="http://www.w3.org/2000/svg" xmlns:xlink="http://www.w3.org/1999/xlink" x="0px" y="0px"
	 viewBox="0 0 715.1 221" style="enable-background:new 0 0 715.1 221;" xml:space="preserve">
<style type="text/css">
	.st0{opacity:0.35;fill:#070707;enable-background:new    ;}
	.st1{fill:#BC3624;}
	.st2{fill:#282328;}
	.st3{fill:#FE593C;}
	.st4{enable-background:new    ;}
	.st5{fill:#FFFFFF;}
</style>
<title>Asset 1</title>
<g id="Layer_2_1_">
	<g id="Win_Dialog">
		<path class="st0" d="M549.1,93.2c-0.2-0.6-1-2.8-1.4-4.2c-2.8-4.4-5.8-8.7-9.1-12.8c-0.4-0.3-0.9-0.6-1.3-0.8
			c-3.3-2-6.6-3.9-10-5.7c-0.9-0.4-1.8-0.8-2.8-1.3c1.3,0.8,1.4,1.2-2.4-1.1c-6.2-2.1-12.7-3.6-19.2-4.5c-26.8-3.1-54-1.7-80.7,1.9
			l-9.8,1.3l7.8-1C398,68,376,72.7,354,76.8c-21.9,4.1-44,6.9-66,9.8c-18.6,2.6-37.2,5.4-55.4,9.8c-9.4,2.2-18.6,4.8-27.7,7.9
			c-4.4,1.5-8.6,3.1-12.9,4.8c-0.5,0.2-1.1,0.5-1.6,0.7c-1.8,0.8-3.7,1.7-5.5,2.6c-6.7,3.3-13.3,6.8-19.7,10.6
			c0.1,10.8-0.3,21.7-0.9,32.5c129.4,29.1,258.8-51.8,388.1-22c-0.6-10.8-0.4-21.7-1.5-32.5C550.3,98.4,549.8,95.8,549.1,93.2z"/>
		<g>
			<path class="st1" d="M195.6,202.9c-65-58.4-129.9,59-194.9,1.9c24.3,1.9,48.7-20.7,73-49.4C49.2,145.3,24.6,128.9,0,87.2
				c65,58.4,129.9-59,194.9-1.9C195.1,124.5,195.4,163.7,195.6,202.9z"/>
			<path class="st1" d="M519.5,182.6c65,59.3,129.9-57.4,194.9,0.6c-24.3-41.2-48.7-57.9-73-68.5C666,86.2,690.5,64,715.1,66.9
				c-65-59.3-129.9,57.4-194.9-0.6L519.5,182.6z"/>
			<path class="st2" d="M142.2,101l-13.4,37.6c0,0,3.4,20.5,33.4,34.6c17.8,6.9,23.9,13.4,33.4,29.7c-0.2-32.6-0.4-80.1-0.6-112.7
				C168.8,95.2,142.2,101,142.2,101z"/>
			<path class="st2" d="M586.3,138c0,0-32.2-34.8-39.1-37c-8.9-2.8-18-5.2-27.1-7l-0.6,88.6C519.5,182.6,538.2,138.3,586.3,138z"/>
		</g>
		<path class="st3" d="M586.3,138c-152.5-60.1-305,60.7-457.5,0.6c-0.2-39.1-0.5-78.1-0.7-117.2c153,59.3,306-64.1,458.9-4.8
			C586.8,57,586.5,97.5,586.3,138z"/>
		<g>
			<g class="st4">
				<path class="st2" d="M194.4,78.6l-6.6,44.3c-0.2,1.5-1.6,2.1-4.5,1.7l-2.4-0.4c-2.9-0.4-4-1.5-3.8-2.9l6.6-44.3
					c0.2-1.5,1.6-2.1,4.5-1.7l2.4,0.4C193.5,76.2,194.6,77.2,194.4,78.6z"/>
			</g>
			<g class="st4">
				<path class="st2" d="M211.3,83.6l-0.4,6.6l3.4,0.2c1.5,0.1,2,1.2,1.9,3.6l-0.1,1.2c-0.1,2.4-0.8,3.5-2.3,3.4l-3.4-0.2l-1,17.8
					c-0.1,2.1,0.5,3,2.3,3.1c0.6,0,1.5-0.2,1.9-0.2c1.4,0.1,1.9,4.6,1.9,5.2c-0.2,3.2-4.7,3.2-6.9,3c-6.6-0.4-10-4.2-9.6-11.9
					l1-17.6l-1.1-0.1c-1.5-0.1-2-1.2-1.9-3.6l0.1-1.2c0.1-2.4,0.8-3.5,2.3-3.4l1.1,0.1l1.3-6.6c0.3-1.5,1.6-2.2,3.9-2l2.2,0.1
					C210.4,81.3,211.4,82.2,211.3,83.6z"/>
			</g>
			<g class="st4">
				<path class="st2" d="M233,76.8c0.2,7.8-6.2,16.6-9.3,16.7c-1.3,0-3.2-0.3-3.2-1.5c0-0.6,0.2-1.2,0.4-2c0.9-2.3,2.5-5.8,2.3-12.9
					c0-1.9,1.2-3.1,4.1-3.2l1.3,0C231.6,73.8,232.9,75.1,233,76.8z"/>
			</g>
			<g class="st4">
				<path class="st2" d="M255,92.1c0.1,1.5-1.3,5.6-2.6,5.7c-0.8,0.1-2.8-1.3-6.1-1c-2.3,0.2-3.7,1-3.5,2.7c0.2,3.1,4.5,3.5,8.3,5
					c3.3,1.3,6.4,3.7,6.8,9.2c0.5,7.1-4.1,12.3-12.9,12.9c-5.3,0.4-11.7-0.9-12-3.9c-0.1-1.8,1.9-5.6,3.3-5.6
					c1.1-0.1,3.5,1.7,7.2,1.5c2.7-0.2,4-1.3,3.9-3.2c-0.2-2.7-3.1-3.2-6.3-4.2c-3.5-1.1-8.2-2.9-8.7-9.9
					c-0.5-7.3,4.2-11.8,11.9-12.4C248.3,88.5,254.8,89.1,255,92.1z"/>
			</g>
			<g class="st4">
				<path class="st2" d="M307,93l1.9,13c1.1,7.1,2.1,8.5,2.3,9.9c0.2,1.7-5.7,3.1-7.4,3.4c-2.2,0.3-2.8-2.6-3.5-4.4
					c-0.3,1-3,5.8-9.4,6.8c-7.5,1.1-10.9-2.9-11.8-8.6c-0.8-5.7,0.4-13.2,17.9-15.8l-0.3-2.3c-0.4-2.6-2.2-3.7-6-3.1
					c-5.1,0.8-7.7,3.4-8.5,3.5c-1.5,0.2-4.2-3.5-4.4-5c-0.4-2.4,4.8-5.6,12.5-6.8C301.3,82,305.9,86.3,307,93z M289.2,110.6
					c0.3,1.7,1.6,2.9,3.9,2.5c2.6-0.4,4.8-2.6,5.6-5.3l-0.6-3.8C291.5,105,288.7,107.3,289.2,110.6z"/>
			</g>
			<g class="st4">
				<path class="st2" d="M375.4,59l8.1,43.9c0.3,1.4-0.8,2.4-3.7,3l-2,0.4c-2.9,0.5-4.3,0-4.5-1.4L368,76.4l-0.3,0L361,96
					c-0.5,0.9-1.2,1.6-2.5,1.8l-2,0.4c-1.3,0.2-2.2-0.1-3-0.8l-13.2-15.9l-0.3,0.1l5.2,28.4c0.3,1.4-0.8,2.4-3.7,3l-2,0.4
					c-2.9,0.5-4.3,0-4.5-1.4L327,67.9c-0.3-1.4,0.8-2.4,3.7-3l3.6-0.7c2-0.4,3.7-0.2,4.7,1.1l15.3,18.4l0.7,0.9l0.4-1.3l7.9-22.4
					c0.5-1.5,2-2.3,4-2.6l3.6-0.7C373.7,57.1,375.1,57.6,375.4,59z"/>
			</g>
			<g class="st4">
				<path class="st2" d="M415.5,73.7l2.2,13c1.2,7.1,2.3,8.4,2.5,9.9c0.3,1.7-5.6,3.2-7.4,3.5c-2.2,0.4-2.8-2.5-3.6-4.3
					c-0.3,1-2.9,5.9-9.3,6.9c-7.5,1.2-11-2.7-11.9-8.4c-0.9-5.7,0.1-13.2,17.7-16.1l-0.4-2.3c-0.4-2.6-2.2-3.7-6-3
					c-5,0.8-7.6,3.5-8.5,3.7c-1.5,0.2-4.3-3.5-4.5-4.9c-0.4-2.3,4.7-5.7,12.4-7C409.6,62.9,414.3,67,415.5,73.7z M398,91.6
					c0.3,1.7,1.7,2.8,4,2.5c2.6-0.4,4.8-2.7,5.5-5.4l-0.6-3.8C400.2,86,397.4,88.3,398,91.6z"/>
			</g>
			<g class="st4">
				<path class="st2" d="M431,53.6l0.9,6.6l3.4-0.5c1.5-0.2,2.2,0.7,2.6,3.2L438,64c0.3,2.4-0.1,3.6-1.6,3.8l-3.4,0.5l2.5,17.6
					c0.3,2.1,1.1,2.9,2.9,2.6c0.6-0.1,1.4-0.5,1.8-0.5c1.4-0.2,2.8,4.1,2.9,4.7c0.5,3.2-4,4-6.2,4.3c-6.5,0.9-10.6-2.1-11.7-9.8
					l-2.5-17.5l-1.1,0.2c-1.5,0.2-2.2-0.7-2.6-3.2l-0.2-1.2c-0.3-2.4,0.1-3.6,1.6-3.8l1.1-0.2l0-6.7c0-1.5,1.1-2.4,3.4-2.7l2.1-0.3
					C429.6,51.5,430.8,52.1,431,53.6z"/>
			</g>
			<g class="st4">
				<path class="st2" d="M471.5,60.3c0.1,1.3-2,5.6-3.2,5.7c-0.3,0-0.7-0.1-1.3-0.4c-1.3-0.5-3.3-1.2-6.2-1
					c-5.6,0.5-7.5,4.2-6.9,11.3c0.7,7.2,3.2,10.5,8.5,10c3.3-0.3,5.4-1.5,6.7-2.3c0.5-0.3,0.9-0.5,1.2-0.5c1.5-0.1,4,3.6,4.1,5
					c0.4,3.9-9.4,5.8-11.7,6c-11.9,1.1-18.1-4.4-19.3-16.9c-1.2-12.4,3.6-19.5,16.1-20.7C464.4,56.1,471.1,57.1,471.5,60.3z"/>
			</g>
			<g class="st4">
				<path class="st2" d="M487.6,41.5l0.2,18.1c2.1-2.6,5.6-4.8,9.8-4.9c7-0.1,10.6,3.4,10.7,11.2l0.3,23.7c0,1.5-1.2,2.3-4.2,2.3
					l-2,0c-2.9,0-4.2-0.7-4.2-2.2L498,67.7c0-2.7-1.5-4.3-4.5-4.3c-2.9,0-4.7,2.5-5.5,4.1l0.3,22.5c0,1.5-1.2,2.3-4.2,2.3l-2,0
					c-2.9,0-4.2-0.7-4.2-2.2l-0.7-48.4c0-1.5,1.2-2.3,4.2-2.3l2,0C486.3,39.3,487.5,40.1,487.6,41.5z"/>
			</g>
			<g class="st4">
				<path class="st2" d="M526,84.8l-0.5,6.4c-0.1,1.5-1.4,2.1-4.4,1.9l-2.2-0.2c-2.9-0.2-4.1-1.1-4-2.6l0.5-6.4
					c0.1-1.5,1.4-2.1,4.4-1.9l2.2,0.2C524.9,82.4,526.1,83.3,526,84.8z M531.2,46.3c-2,9.7-3.9,19.4-5.9,29.1
					c-0.3,1.5-0.9,2.2-3.8,2l-0.8-0.1c-2.9-0.2-3.5-1.1-3.4-2.5l2.3-29.1c0.1-1.5,1.4-2.1,4.4-1.9l3,0.2
					C529.9,44.2,531.3,45,531.2,46.3z"/>
			</g>
			<g class="st4">
				<path class="st5" d="M196.4,75.6l-6.6,44.3c-0.2,1.5-1.6,2.1-4.5,1.7l-2.4-0.4c-2.9-0.4-4-1.5-3.8-2.9l6.6-44.3
					c0.2-1.5,1.6-2.1,4.5-1.7l2.4,0.4C195.5,73.2,196.6,74.2,196.4,75.6z"/>
			</g>
			<g class="st4">
				<path class="st5" d="M213.3,80.6l-0.4,6.6l3.4,0.2c1.5,0.1,2,1.2,1.9,3.6l-0.1,1.2c-0.1,2.4-0.8,3.5-2.3,3.4l-3.4-0.2l-1,17.8
					c-0.1,2.1,0.5,3,2.3,3.1c0.6,0,1.5-0.2,1.9-0.2c1.4,0.1,1.9,4.6,1.9,5.2c-0.2,3.2-4.7,3.2-6.9,3c-6.6-0.4-10-4.2-9.6-11.9
					l1-17.6l-1.1-0.1c-1.5-0.1-2-1.2-1.9-3.6l0.1-1.2c0.1-2.4,0.8-3.5,2.3-3.4l1.1,0.1l1.3-6.6c0.3-1.5,1.6-2.2,3.9-2l2.2,0.1
					C212.4,78.3,213.4,79.2,213.3,80.6z"/>
			</g>
			<g class="st4">
				<path class="st5" d="M235,73.8c0.2,7.8-6.2,16.6-9.3,16.7c-1.3,0-3.2-0.3-3.2-1.5c0-0.6,0.2-1.2,0.4-2c0.9-2.3,2.5-5.8,2.3-12.9
					c0-1.9,1.2-3.1,4.1-3.2l1.3,0C233.6,70.8,234.9,72.1,235,73.8z"/>
			</g>
			<g class="st4">
				<path class="st5" d="M257,89.1c0.1,1.5-1.3,5.6-2.6,5.7c-0.8,0.1-2.8-1.3-6.1-1c-2.3,0.2-3.7,1-3.5,2.7c0.2,3.1,4.5,3.5,8.3,5
					c3.3,1.3,6.4,3.7,6.8,9.2c0.5,7.1-4.1,12.3-12.9,12.9c-5.3,0.4-11.7-0.9-12-3.9c-0.1-1.8,1.9-5.6,3.3-5.7
					c1.1-0.1,3.5,1.7,7.2,1.5c2.7-0.2,4-1.3,3.9-3.2c-0.2-2.7-3.1-3.2-6.3-4.2c-3.5-1.1-8.2-2.9-8.7-9.9
					c-0.5-7.3,4.2-11.8,11.9-12.4C250.3,85.5,256.8,86.1,257,89.1z"/>
			</g>
			<g class="st4">
				<path class="st5" d="M309,90l1.9,13c1.1,7.1,2.1,8.5,2.3,9.9c0.2,1.7-5.7,3.1-7.4,3.4c-2.2,0.3-2.8-2.6-3.5-4.4
					c-0.3,1-3,5.8-9.4,6.8c-7.5,1.1-10.9-2.9-11.8-8.6c-0.8-5.7,0.4-13.2,17.9-15.8l-0.3-2.3c-0.4-2.6-2.2-3.7-6-3.1
					c-5.1,0.8-7.7,3.4-8.5,3.5c-1.5,0.2-4.2-3.5-4.4-5c-0.4-2.4,4.8-5.6,12.5-6.8C303.3,79,307.9,83.3,309,90z M291.2,107.6
					c0.3,1.7,1.6,2.9,3.9,2.5c2.6-0.4,4.8-2.6,5.6-5.3l-0.6-3.8C293.5,102,290.7,104.3,291.2,107.6z"/>
			</g>
			<g class="st4">
				<path class="st5" d="M377.4,56l8.1,43.9c0.3,1.4-0.8,2.4-3.7,3l-2,0.4c-2.9,0.5-4.3,0-4.5-1.4L370,73.4l-0.3,0L363,93
					c-0.5,0.9-1.2,1.6-2.5,1.8l-2,0.4c-1.3,0.2-2.2-0.1-3-0.8l-13.2-15.9l-0.3,0.1l5.2,28.4c0.3,1.4-0.8,2.4-3.7,3l-2,0.4
					c-2.9,0.5-4.3,0-4.5-1.4L329,64.9c-0.3-1.4,0.8-2.4,3.7-3l3.6-0.7c2-0.4,3.7-0.2,4.7,1.1l15.3,18.4l0.7,0.9l0.4-1.3l7.9-22.4
					c0.5-1.5,2-2.3,4-2.6l3.6-0.7C375.7,54.1,377.1,54.6,377.4,56z"/>
			</g>
			<g class="st4">
				<path class="st5" d="M417.5,70.7l2.2,13c1.2,7.1,2.3,8.4,2.5,9.9c0.3,1.7-5.6,3.2-7.4,3.5c-2.2,0.4-2.8-2.5-3.6-4.3
					c-0.3,1-2.9,5.9-9.3,6.9c-7.5,1.2-11-2.7-11.9-8.4c-0.9-5.7,0.1-13.2,17.7-16.1l-0.4-2.3c-0.4-2.6-2.2-3.7-6-3
					c-5,0.8-7.6,3.5-8.5,3.7c-1.5,0.2-4.3-3.5-4.5-4.9c-0.4-2.3,4.7-5.7,12.4-7C411.6,59.9,416.3,64,417.5,70.7z M400,88.6
					c0.3,1.7,1.7,2.8,4,2.5c2.6-0.4,4.8-2.7,5.5-5.4l-0.6-3.8C402.2,83,399.4,85.3,400,88.6z"/>
			</g>
			<g class="st4">
				<path class="st5" d="M433,50.6l0.9,6.6l3.4-0.5c1.5-0.2,2.2,0.7,2.6,3.2L440,61c0.3,2.4-0.1,3.6-1.6,3.8l-3.4,0.5l2.5,17.6
					c0.3,2.1,1.1,2.9,2.9,2.6c0.6-0.1,1.4-0.5,1.8-0.5c1.4-0.2,2.8,4.1,2.9,4.7c0.5,3.2-4,4-6.2,4.3c-6.5,0.9-10.6-2.1-11.7-9.8
					l-2.5-17.5l-1.1,0.2c-1.5,0.2-2.2-0.7-2.6-3.2l-0.2-1.2c-0.3-2.4,0.1-3.6,1.6-3.8l1.1-0.2l0-6.7c0-1.5,1.1-2.4,3.4-2.7l2.1-0.3
					C431.6,48.5,432.8,49.1,433,50.6z"/>
			</g>
			<g class="st4">
				<path class="st5" d="M473.5,57.3c0.1,1.3-2,5.6-3.2,5.7c-0.3,0-0.7-0.1-1.3-0.4c-1.3-0.5-3.3-1.2-6.2-1
					c-5.6,0.5-7.5,4.2-6.9,11.3c0.7,7.2,3.2,10.5,8.5,10c3.3-0.3,5.4-1.5,6.7-2.3c0.5-0.3,0.9-0.5,1.2-0.5c1.5-0.1,4,3.6,4.1,5
					c0.4,3.9-9.4,5.8-11.7,6c-11.9,1.1-18.1-4.4-19.3-16.9c-1.2-12.4,3.6-19.5,16.1-20.7C466.4,53.1,473.1,54.1,473.5,57.3z"/>
			</g>
			<g class="st4">
				<path class="st5" d="M489.6,38.5l0.2,18.1c2.1-2.6,5.6-4.8,9.8-4.9c7-0.1,10.6,3.4,10.7,11.2l0.3,23.7c0,1.5-1.2,2.3-4.2,2.3
					l-2,0c-2.9,0-4.2-0.7-4.2-2.2L500,64.7c0-2.7-1.5-4.3-4.5-4.3c-2.9,0-4.7,2.5-5.5,4.1l0.3,22.5c0,1.5-1.2,2.3-4.2,2.3l-2,0
					c-2.9,0-4.2-0.7-4.2-2.2l-0.7-48.4c0-1.5,1.2-2.3,4.2-2.3l2,0C488.3,36.3,489.5,37.1,489.6,38.5z"/>
			</g>
			<g class="st4">
				<path class="st5" d="M528,81.8l-0.5,6.4c-0.1,1.5-1.4,2.1-4.4,1.9l-2.2-0.2c-2.9-0.2-4.1-1.1-4-2.6l0.5-6.4
					c0.1-1.5,1.4-2.1,4.4-1.9l2.2,0.2C526.9,79.4,528.1,80.3,528,81.8z M533.2,43.3c-2,9.7-3.9,19.4-5.9,29.1
					c-0.3,1.5-0.9,2.2-3.7,2l-0.8-0.1c-2.9-0.2-3.5-1.1-3.4-2.5l2.3-29.1c0.1-1.5,1.4-2.1,4.4-1.9l3,0.2
					C531.9,41.2,533.3,42,533.2,43.3z"/>
			</g>
		</g>
	</g>
</g>
</svg>
